<svg width="50" height="50" viewBox="0 0 50 50" fill="none" xmlns="http://www.w3.org/2000/svg">
<path d="M35.3125 23.1094H32.4484C32.043 19.6781 29.3219 16.957 25.8906 16.5516V13.6875C25.8906 13.5844 25.8063 13.5 25.7031 13.5H24.2969C24.1937 13.5 24.1094 13.5844 24.1094 13.6875V16.5516C20.6781 16.957 17.957 19.6781 17.5516 23.1094H14.6875C14.5844 23.1094 14.5 23.1937 14.5 23.2969V24.7031C14.5 24.8063 14.5844 24.8906 14.6875 24.8906H17.5516C17.957 28.3219 20.6781 31.043 24.1094 31.4484V34.3125C24.1094 34.4156 24.1937 34.5 24.2969 34.5H25.7031C25.8063 34.5 25.8906 34.4156 25.8906 34.3125V31.4484C29.3219 31.043 32.043 28.3219 32.4484 24.8906H35.3125C35.4156 24.8906 35.5 24.8063 35.5 24.7031V23.2969C35.5 23.1937 35.4156 23.1094 35.3125 23.1094ZM25 29.7188C21.8406 29.7188 19.2812 27.1594 19.2812 24C19.2812 20.8406 21.8406 18.2812 25 18.2812C28.1594 18.2812 30.7188 20.8406 30.7188 24C30.7188 27.1594 28.1594 29.7188 25 29.7188Z" fill="#3B97D3"/>
<path d="M25 21.1875C24.2477 21.1875 23.5445 21.4781 23.0125 22.0125C22.4805 22.5445 22.1875 23.2477 22.1875 24C22.1875 24.7523 22.4805 25.4555 23.0125 25.9875C23.5445 26.5172 24.25 26.8125 25 26.8125C25.75 26.8125 26.4555 26.5195 26.9875 25.9875C27.5172 25.4555 27.8125 24.75 27.8125 24C27.8125 23.25 27.5195 22.5445 26.9875 22.0125C26.4555 21.4781 25.7523 21.1875 25 21.1875Z" fill="#3B97D3"/>
<rect width="50" height="50" rx="10" fill="#3B97D3" fill-opacity="0.4"/>
</svg>
