<svg width="28" height="24" viewBox="0 0 28 24" fill="none" xmlns="http://www.w3.org/2000/svg">
<path d="M24.6666 5.33333V2.66667C24.6666 1.196 23.4706 0 22 0H4.66663C2.46129 0 0.666626 1.79467 0.666626 4V20C0.666626 22.9347 3.05863 24 4.66663 24H24.6666C26.1373 24 27.3333 22.804 27.3333 21.3333V8C27.3333 6.52933 26.1373 5.33333 24.6666 5.33333ZM22 17.3333H19.3333V12H22V17.3333ZM4.66663 5.33333C4.32332 5.31798 3.99917 5.17079 3.76166 4.92242C3.52416 4.67406 3.3916 4.34365 3.3916 4C3.3916 3.65635 3.52416 3.32594 3.76166 3.07758C3.99917 2.82921 4.32332 2.68202 4.66663 2.66667H22V5.33333H4.66663Z" fill="#3B97D3"/>
</svg>
