<svg width="50" height="50" viewBox="0 0 50 50" fill="none" xmlns="http://www.w3.org/2000/svg">
<rect width="50" height="50" rx="10" fill="#F5B7B1"/>
<path d="M30.1083 25.5069L30.1082 25.5069L26.25 29.5272V12.3438C26.25 12.0104 26.123 11.6868 25.891 11.4451C25.6583 11.2027 25.3382 11.0625 25 11.0625C24.6617 11.0625 24.3416 11.2027 24.1089 11.4451C23.8769 11.6868 23.75 12.0104 23.75 12.3438V29.5272L19.8917 25.5069L19.8917 25.5069C19.6588 25.2643 19.3385 25.124 19 25.124C18.6615 25.124 18.3412 25.2643 18.1083 25.5069C17.8761 25.7487 17.749 26.0726 17.749 26.4062C17.749 26.7399 17.8761 27.0638 18.1083 27.3056L24.1078 33.5552C24.1079 33.5552 24.1079 33.5553 24.108 33.5553C24.2231 33.6755 24.3609 33.772 24.5141 33.8382C24.6675 33.9045 24.8326 33.9389 25 33.9389C25.1673 33.9389 25.3325 33.9045 25.4858 33.8382C25.6389 33.772 25.7766 33.6757 25.8917 33.5556C25.8918 33.5555 25.892 33.5553 25.8921 33.5552L31.8917 27.3056C32.1239 27.0638 32.2509 26.7399 32.2509 26.4062C32.2509 26.0726 32.1239 25.7487 31.8917 25.5069C31.6588 25.2643 31.3385 25.124 31 25.124C30.6615 25.124 30.3412 25.2643 30.1083 25.5069Z" fill="#E64C3C" stroke="#E64C3C"/>
</svg>
