<svg width="50" height="50" viewBox="0 0 50 50" fill="none" xmlns="http://www.w3.org/2000/svg">
<path d="M26.001 18.2679L29.8664 22.1345L29.8665 22.1346C30.1011 22.3692 30.4192 22.5009 30.751 22.5009C31.0828 22.5009 31.401 22.3692 31.6356 22.1346C31.8702 21.9 32.002 21.5818 32.002 21.25C32.002 20.9182 31.8702 20.6 31.6356 20.3654L25.636 14.3659L26.001 18.2679ZM26.001 18.2679L26.001 34.75C26.001 35.0815 25.8693 35.3995 25.6349 35.6339C25.4005 35.8683 25.0825 36 24.751 36C24.4195 36 24.1015 35.8683 23.8671 35.6339C23.6327 35.3995 23.501 35.0815 23.501 34.75L23.501 18.2679M26.001 18.2679H23.501M23.501 18.2679L19.6356 22.1345L19.6356 22.1346C19.401 22.3692 19.0828 22.5009 18.751 22.5009C18.4192 22.5009 18.101 22.3692 17.8665 22.1346C17.6319 21.9 17.5001 21.5818 17.5001 21.25C17.5001 20.9182 17.6319 20.6 17.8665 20.3654L23.866 14.3659L23.501 18.2679ZM24.2719 14.0941C24.1203 14.157 23.9825 14.2492 23.8665 14.3654H25.6356C25.5195 14.2492 25.3818 14.157 25.2301 14.0941C25.0782 14.0311 24.9154 13.9987 24.751 13.9987C24.5866 13.9987 24.4238 14.0311 24.2719 14.0941Z" fill="#00BF76" stroke="#00BF76"/>
<g opacity="0.4">
<rect width="50" height="50" rx="10" fill="#00BF76"/>
</g>
</svg>
