<svg width="24" height="24" viewBox="0 0 24 24" fill="none" xmlns="http://www.w3.org/2000/svg">
<path d="M11.9999 22.8532C12.4199 22.8436 12.8229 22.6857 13.1377 22.4075C13.4524 22.1294 13.6587 21.7488 13.7199 21.3333H10.2133C10.2762 21.7601 10.4921 22.1496 10.8208 22.4292C11.1494 22.7088 11.5685 22.8595 11.9999 22.8532Z" fill="#9B9B9B"/>
<path d="M21.9 18.7533L21.6733 18.5534C21.0303 17.9804 20.4674 17.3234 20 16.6C19.4895 15.6017 19.1835 14.5115 19.1 13.3934V10.1C19.0973 9.69998 19.0616 9.30085 18.9933 8.90668C17.8641 8.67457 16.8497 8.05936 16.122 7.1652C15.3943 6.27104 14.9979 5.15288 15 4.00002V3.58002C14.3039 3.23748 13.5561 3.01222 12.7867 2.91335V2.07335C12.7867 1.83731 12.6929 1.61093 12.526 1.44402C12.3591 1.27712 12.1327 1.18335 11.8967 1.18335C11.6606 1.18335 11.4342 1.27712 11.2673 1.44402C11.1004 1.61093 11.0067 1.83731 11.0067 2.07335V2.94668C9.2838 3.18972 7.70704 4.04785 6.56747 5.36264C5.4279 6.67743 4.80248 8.36011 4.80666 10.1V13.3934C4.72316 14.5115 4.41718 15.6017 3.90666 16.6C3.44725 17.3216 2.89345 17.9785 2.25999 18.5534L2.03333 18.7533V20.6334H21.9V18.7533Z" fill="#9B9B9B"/>
<path d="M20 7.33341C21.8409 7.33341 23.3333 5.84103 23.3333 4.00008C23.3333 2.15913 21.8409 0.666748 20 0.666748C18.159 0.666748 16.6666 2.15913 16.6666 4.00008C16.6666 5.84103 18.159 7.33341 20 7.33341Z" fill="#7C4CE0"/>
</svg>
