<svg width="50" height="50" viewBox="0 0 50 50" fill="none" xmlns="http://www.w3.org/2000/svg">
<g opacity="0.4">
<rect width="50" height="50" rx="10" fill="#6175D6"/>
</g>
<g clip-path="url(#clip0_636_219)">
<path d="M36.3333 25.5799C35.8362 25.3939 35.3824 25.108 35 24.7399C34.1261 23.7687 33.3882 22.6832 32.8066 21.5133L35.0666 17.9866C35.1211 17.9061 35.1551 17.8135 35.1658 17.7169C35.1765 17.6203 35.1636 17.5226 35.1282 17.4321C35.0928 17.3416 35.0359 17.261 34.9625 17.1973C34.8891 17.1337 34.8013 17.0888 34.7066 17.0666C33.5442 16.9126 32.3618 17.0785 31.2866 17.5466C30.5261 17.88 29.8221 18.3299 29.2 18.8799C28.0066 18.2934 26.7212 17.9168 25.4 17.7666C20.8666 17.3466 16.5133 20.2666 16.0266 24.3333L15.9333 24.2866C15.7 24.1836 15.4905 24.0332 15.3184 23.845C15.1462 23.6568 15.0151 23.4349 14.9333 23.1933C14.88 23.0231 14.8614 22.844 14.8786 22.6665C14.8958 22.489 14.9484 22.3167 15.0333 22.1599C15.1084 22.028 15.2164 21.9178 15.3466 21.8399C15.4276 21.7909 15.4982 21.7264 15.5542 21.6501C15.6103 21.5738 15.6508 21.4873 15.6734 21.3953C15.6959 21.3034 15.7002 21.2079 15.6859 21.1143C15.6716 21.0208 15.639 20.9309 15.59 20.8499C15.541 20.7689 15.4765 20.6984 15.4002 20.6424C15.3239 20.5863 15.2373 20.5458 15.1454 20.5232C15.0534 20.5006 14.958 20.4964 14.8644 20.5107C14.7708 20.525 14.681 20.5576 14.6 20.6066C14.2594 20.8091 13.977 21.0962 13.78 21.4399C13.5999 21.7667 13.4876 22.1264 13.4498 22.4975C13.412 22.8686 13.4495 23.2436 13.56 23.5999C13.6948 24.0322 13.9162 24.4324 14.2108 24.7763C14.5053 25.1202 14.8669 25.4004 15.2733 25.5999L15.94 25.9599C16.0465 27.6563 16.5004 29.3128 17.2733 30.8266C17.8062 31.9692 18.4779 33.0418 19.2733 34.0199C19.3368 34.1003 19.4179 34.1649 19.5104 34.2089C19.6029 34.2528 19.7043 34.2748 19.8066 34.2733H22.2133C22.2684 34.2664 22.3211 34.2464 22.3668 34.2149C22.4126 34.1834 22.4501 34.1414 22.4763 34.0924C22.5024 34.0434 22.5164 33.9888 22.517 33.9333C22.5177 33.8777 22.505 33.8229 22.48 33.7733L22.3333 33.2533C22.2454 32.9953 22.172 32.7327 22.1133 32.4666C22.72 32.5733 23.5 32.6733 24.0266 32.7199C24.7189 32.7739 25.4144 32.7739 26.1066 32.7199C26.3666 33.1866 26.6333 33.6066 26.8733 33.9533C26.93 34.0373 27.0064 34.1062 27.0959 34.1538C27.1854 34.2015 27.2853 34.2265 27.3866 34.2266H29.46C29.5278 34.2257 29.5945 34.2089 29.6547 34.1775C29.7149 34.1462 29.7668 34.1011 29.8064 34.0459C29.846 33.9908 29.872 33.9272 29.8825 33.8601C29.893 33.7931 29.8875 33.7245 29.8666 33.6599C29.7133 33.1666 29.5133 32.4933 29.3933 32.0799C30.2742 31.7995 31.1147 31.4051 31.8933 30.9066C32 30.8333 32.1066 30.7333 32.2133 30.6466C31.6556 30.4761 31.1154 30.2529 30.6 29.9799C30.4744 29.9145 30.38 29.8019 30.3375 29.6669C30.295 29.5318 30.3079 29.3855 30.3733 29.2599C30.4387 29.1344 30.5513 29.04 30.6864 28.9975C30.8214 28.955 30.9678 28.9678 31.0933 29.0333C31.7607 29.3791 32.4749 29.6261 33.2133 29.7666C33.8047 29.8534 34.4033 29.8802 35 29.8466C35.1324 29.8412 35.2602 29.7965 35.3671 29.7181C35.4739 29.6397 35.555 29.5313 35.6 29.4066L36.7533 26.4466C36.7847 26.3622 36.7986 26.2724 36.7943 26.1825C36.79 26.0927 36.7676 26.0046 36.7284 25.9236C36.6891 25.8426 36.6339 25.7704 36.566 25.7114C36.4981 25.6523 36.4189 25.6076 36.3333 25.5799V25.5799ZM22.1933 20.7266C22.1292 20.7495 22.0614 20.7608 21.9933 20.7599C21.8623 20.7579 21.736 20.7104 21.636 20.6257C21.536 20.541 21.4684 20.4242 21.4448 20.2953C21.4213 20.1664 21.4431 20.0333 21.5066 19.9186C21.5702 19.804 21.6715 19.7149 21.7933 19.6666C23.2181 19.137 24.7612 19.0101 26.2533 19.2999C26.3302 19.3089 26.4044 19.3334 26.4714 19.3721C26.5384 19.4109 26.5967 19.4629 26.6429 19.525C26.689 19.5871 26.7219 19.658 26.7396 19.7334C26.7572 19.8087 26.7593 19.8868 26.7456 19.963C26.7319 20.0391 26.7028 20.1117 26.66 20.1762C26.6172 20.2406 26.5617 20.2957 26.4968 20.3378C26.432 20.38 26.3592 20.4085 26.2829 20.4214C26.2066 20.4344 26.1285 20.4316 26.0533 20.4133C24.7623 20.1615 23.4268 20.2699 22.1933 20.7266V20.7266ZM30.54 24.8066C30.3501 24.8066 30.1645 24.7503 30.0066 24.6448C29.8488 24.5393 29.7257 24.3894 29.6531 24.214C29.5804 24.0386 29.5614 23.8455 29.5984 23.6593C29.6355 23.4731 29.7269 23.302 29.8612 23.1678C29.9954 23.0335 30.1665 22.9421 30.3527 22.905C30.5389 22.868 30.7319 22.887 30.9074 22.9597C31.0828 23.0323 31.2327 23.1554 31.3382 23.3132C31.4437 23.4711 31.5 23.6567 31.5 23.8466C31.5009 23.9727 31.4769 24.0977 31.4295 24.2145C31.382 24.3313 31.3121 24.4376 31.2235 24.5274C31.135 24.6171 31.0297 24.6886 30.9135 24.7376C30.7974 24.7867 30.6727 24.8124 30.5466 24.8133L30.54 24.8066Z" fill="#0013C1" fill-opacity="0.68"/>
</g>
<defs>
<clipPath id="clip0_636_219">
<rect width="24" height="24" fill="white" transform="translate(13 13)"/>
</clipPath>
</defs>
</svg>
