<svg width="50" height="50" viewBox="0 0 50 50" fill="none" xmlns="http://www.w3.org/2000/svg">
<rect width="50" height="50" rx="10" fill="#CBB7F3"/>
<path d="M12.2808 19.1857V24.2394H13.4808V31.8166H12.2808V35.6059H31.4808L35.0808 35.6072V35.6059H36.2808V31.8166H35.0808V24.2394H36.2808V19.1857L24.2808 11.6072L12.2808 19.1857ZM17.0808 31.8166V24.2394H19.4808V31.8166H17.0808ZM23.0808 31.8166V24.2394H25.4808V31.8166H23.0808ZM31.4808 31.8166H29.0808V24.2394H31.4808V31.8166ZM26.6808 19.1857C26.6807 19.5176 26.6185 19.8461 26.4978 20.1526C26.3771 20.4592 26.2002 20.7377 25.9772 20.9723C25.7542 21.2068 25.4896 21.3929 25.1983 21.5198C24.907 21.6467 24.5948 21.712 24.2796 21.7119C23.9643 21.7118 23.6522 21.6464 23.3609 21.5193C23.0697 21.3923 22.8051 21.2061 22.5823 20.9714C22.3594 20.7367 22.1826 20.4581 22.0621 20.1515C21.9415 19.8449 21.8795 19.5163 21.8796 19.1845C21.8797 18.5143 22.1328 17.8717 22.5831 17.3979C23.0334 16.9242 23.6441 16.6581 24.2808 16.6583C24.9174 16.6584 25.528 16.9248 25.9781 17.3988C26.4282 17.8728 26.6809 18.5156 26.6808 19.1857Z" fill="#7C4CE0"/>
</svg>
