<svg width="30" height="30" viewBox="0 0 30 30" fill="none" xmlns="http://www.w3.org/2000/svg">
<path d="M16.5304 5.13743L17.6875 3.99777C19.9599 1.75977 23.6593 1.70437 25.9447 3.92948C26.8107 4.77449 27.3862 5.86544 27.5903 7.0491C27.7945 8.23277 27.617 9.44967 27.0828 10.5289C26.8266 11.0444 26.7403 11.6259 26.8358 12.1921C26.9315 12.7583 27.2042 13.2809 27.6161 13.687C28.3734 12.9394 28.9736 12.0522 29.3827 11.076C29.7917 10.0998 30.0015 9.05386 30 7.99783C29.9984 6.94181 29.7857 5.89642 29.3739 4.9214C28.962 3.94636 28.3591 3.0608 27.5997 2.31531C24.404 -0.814401 19.2167 -0.752121 16.0299 2.38638L5.00029 13.249L4.09356 12.356C1.78269 10.08 1.76795 6.35975 4.1196 4.12423C4.99007 3.2993 6.09907 2.76079 7.29353 2.58303C8.48799 2.40527 9.70902 2.59704 10.7881 3.13185C11.2806 3.38043 11.8403 3.46935 12.3872 3.38592C12.9341 3.3025 13.4403 3.05098 13.8334 2.66731L13.8615 2.63976C13.8703 2.6312 13.8772 2.62101 13.882 2.60979C13.8867 2.59858 13.8891 2.58655 13.8891 2.5744C13.8891 2.56225 13.8867 2.55022 13.882 2.53901C13.8772 2.5278 13.8703 2.51761 13.8615 2.50904C12.3435 1.05147 10.3092 0.232758 8.1891 0.226139C6.06904 0.219521 4.0295 1.02552 2.50209 2.47358C-0.788128 5.60183 -0.77637 10.8038 2.45745 13.9888L13.4838 24.8485L12.3125 26.002C10.0401 28.24 6.3406 28.2954 4.05532 26.0703C3.18934 25.2254 2.61386 24.1344 2.4097 22.9507C2.20556 21.7671 2.38298 20.5502 2.91707 19.4709C3.1733 18.9554 3.25966 18.3739 3.16409 17.8078C3.06851 17.2416 2.79576 16.7189 2.38395 16.3128C1.62665 17.0604 1.02633 17.9476 0.617286 18.9237C0.20824 19.9 -0.00151172 20.9459 8.20148e-06 22.002C0.00152813 23.058 0.21429 24.1034 0.626145 25.0784C1.038 26.0535 1.64087 26.939 2.40032 27.6845C5.5959 30.8144 10.7833 30.7522 13.9702 27.6136L25.014 16.7364L25.9242 17.6328C28.1965 19.8708 28.2527 23.5143 25.9935 25.7651C25.1356 26.6181 24.0278 27.1848 22.826 27.386C21.6243 27.5871 20.3887 27.4122 19.2928 26.8861C18.7693 26.6336 18.1786 26.5485 17.6035 26.6429C17.0284 26.7371 16.4975 27.006 16.0852 27.4119C16.8443 28.1578 17.7451 28.7491 18.7362 29.152C19.7275 29.5548 20.7894 29.7615 21.8617 29.76C22.9339 29.7584 23.9954 29.5488 24.9853 29.1432C25.9753 28.7376 26.8745 28.1438 27.6314 27.3958C30.8093 24.2485 30.746 19.1395 27.5594 16.0009L16.5304 5.13743ZM15.1303 23.2261L6.64726 14.8712L14.8833 6.75981L23.3663 15.1147L15.1303 23.2261Z" fill="#7C4CE0"/>
</svg>
